<svg xmlns="http://www.w3.org/2000/svg" xmlns:xlink="http://www.w3.org/1999/xlink" xmlns:lucid="lucid" width="1215.43" height="572.5"><g transform="translate(-180 -80)" lucid:page-tab-id="0_0"><path d="M734 100c3.3 0 6 2.7 6 6v188c0 3.3-2.7 6-6 6H606c-3.3 0-6-2.7-6-6V106c0-3.3 2.7-6 6-6z" stroke="#5e5e5e" stroke-width="3" fill="#fff"/><path d="M654 120c3.3 0 6 2.7 6 6v148c0 3.3-2.7 6-6 6h-8c-3.3 0-6-2.7-6-6V126c0-3.3 2.7-6 6-6zM674 140c3.3 0 6 2.7 6 6v108c0 3.3-2.7 6-6 6h-8c-3.3 0-6-2.7-6-6V146c0-3.3 2.7-6 6-6zM694 160c3.3 0 6 2.7 6 6v68c0 3.3-2.7 6-6 6h-8c-3.3 0-6-2.7-6-6v-68c0-3.3 2.7-6 6-6z" stroke="#5e5e5e" stroke-width="3" fill="#c1e4f7"/><path d="M734 400c3.3 0 6 2.7 6 6v188c0 3.3-2.7 6-6 6H606c-3.3 0-6-2.7-6-6V406c0-3.3 2.7-6 6-6z" stroke="#5e5e5e" stroke-width="3" fill="#fff"/><path d="M654 420c3.3 0 6 2.7 6 6v148c0 3.3-2.7 6-6 6h-8c-3.3 0-6-2.7-6-6V426c0-3.3 2.7-6 6-6zM674 440c3.3 0 6 2.7 6 6v108c0 3.3-2.7 6-6 6h-8c-3.3 0-6-2.7-6-6V446c0-3.3 2.7-6 6-6zM694 460c3.3 0 6 2.7 6 6v68c0 3.3-2.7 6-6 6h-8c-3.3 0-6-2.7-6-6v-68c0-3.3 2.7-6 6-6z" stroke="#5e5e5e" stroke-width="3" fill="#ffdba9"/><path d="M1040 540c-22.1 0-40-17.9-40-40s17.9-40 40-40 40 17.9 40 40-17.9 40-40 40z" stroke="#5e5e5e" stroke-width="3" fill="#fff"/><use xlink:href="#a" transform="matrix(6.123233995736766e-17,1,-1,6.123233995736766e-17,1075,465) translate(32.12962962962963 39.65277777777778)"/><path d="M1135.43 474.33c0-3.3 2.7-6 6-6h228c3.32 0 6 2.7 6 6v51.34c0 3.3-2.68 6-6 6h-228c-3.3 0-6-2.7-6-6z" stroke="#000" stroke-opacity="0" stroke-width="3" fill="#fff" fill-opacity="0"/><use xlink:href="#b" transform="matrix(1,0,0,1,1140.4330708661416,473.3333333333333) translate(16.04938271604938 17.77777777777778)"/><use xlink:href="#c" transform="matrix(1,0,0,1,1140.4330708661416,473.3333333333333) translate(113.33333333333333 17.77777777777778)"/><use xlink:href="#d" transform="matrix(1,0,0,1,1140.4330708661416,473.3333333333333) translate(90.40123456790124 44.44444444444444)"/><path d="M1082.5 500h34.43" stroke="#5e5e5e" stroke-width="2" fill="none"/><path d="M1082.53 501h-1.1l.07-.98-.03-1.02h1.06z" fill="#5e5e5e"/><path d="M1132.2 500l-14.27 4.64v-9.28z" stroke="#5e5e5e" stroke-width="2" fill="#5e5e5e"/><path d="M800 481.83c0-3.3 2.7-6 6-6h32.57c3.3 0 6 2.7 6 6v36.34c0 3.3-2.7 6-6 6H806c-3.3 0-6-2.7-6-6z" stroke="#5e5e5e" stroke-width="3" fill="#fff"/><use xlink:href="#e" transform="matrix(1,0,0,1,805,480.83333333333337) translate(6.7592592592592595 25.09027777777778)"/><path d="M900 481.83c0-3.3 2.7-6 6-6h32.57c3.3 0 6 2.7 6 6v36.34c0 3.3-2.7 6-6 6H906c-3.3 0-6-2.7-6-6z" stroke="#5e5e5e" stroke-width="3" fill="#fff"/><use xlink:href="#f" transform="matrix(1,0,0,1,905,480.83333333333337) translate(11.944444444444445 25.09027777777778)"/><path d="M742.5 500H780" stroke="#5e5e5e" stroke-width="2" fill="none"/><path d="M742.53 501h-1.03v-2h1.03z" fill="#5e5e5e"/><path d="M795.26 500L781 504.64v-9.28z" stroke="#5e5e5e" stroke-width="2" fill="#5e5e5e"/><path d="M847.07 500H880" stroke="#5e5e5e" stroke-width="2" fill="none"/><path d="M847.1 501h-1.03v-2h1.02z" fill="#5e5e5e"/><path d="M895.26 500L881 504.64v-9.28z" stroke="#5e5e5e" stroke-width="2" fill="#5e5e5e"/><path d="M947.07 500H980" stroke="#5e5e5e" stroke-width="2" fill="none"/><path d="M947.1 501h-1.03v-2h1.02z" fill="#5e5e5e"/><path d="M995.26 500L981 504.64v-9.28z" stroke="#5e5e5e" stroke-width="2" fill="#5e5e5e"/><path d="M800 181.83c0-3.3 2.7-6 6-6h32.57c3.3 0 6 2.7 6 6v36.34c0 3.3-2.7 6-6 6H806c-3.3 0-6-2.7-6-6z" stroke="#5e5e5e" stroke-width="3" fill="#fff"/><use xlink:href="#g" transform="matrix(1,0,0,1,805,180.83333333333334) translate(8.858024691358025 25.09027777777778)"/><path d="M742.5 200H780" stroke="#5e5e5e" stroke-width="2" fill="none"/><path d="M742.53 201h-1.03v-2h1.03z" fill="#5e5e5e"/><path d="M795.26 200L781 204.64v-9.28z" stroke="#5e5e5e" stroke-width="2" fill="#5e5e5e"/><path d="M847.07 200H1034c3.3 0 6 2.7 6 6v234" stroke="#5e5e5e" stroke-width="2" fill="none"/><path d="M847.1 201h-1.03v-2h1.02z" fill="#5e5e5e"/><path d="M1040 455.26l-4.64-14.26h9.28z" stroke="#5e5e5e" stroke-width="2" fill="#5e5e5e"/><path d="M434 400c3.3 0 6 2.7 6 6v188c0 3.3-2.7 6-6 6H306c-3.3 0-6-2.7-6-6V406c0-3.3 2.7-6 6-6z" stroke="#5e5e5e" stroke-width="3" fill="#fff"/><path d="M354 420c3.3 0 6 2.7 6 6v148c0 3.3-2.7 6-6 6h-8c-3.3 0-6-2.7-6-6V426c0-3.3 2.7-6 6-6zM374 440c3.3 0 6 2.7 6 6v108c0 3.3-2.7 6-6 6h-8c-3.3 0-6-2.7-6-6V446c0-3.3 2.7-6 6-6zM394 460c3.3 0 6 2.7 6 6v68c0 3.3-2.7 6-6 6h-8c-3.3 0-6-2.7-6-6v-68c0-3.3 2.7-6 6-6z" stroke="#5e5e5e" stroke-width="3" fill="#ef8d22"/><path d="M497.72 481.83c0-3.3 2.68-6 6-6h32.56c3.32 0 6 2.7 6 6v36.34c0 3.3-2.68 6-6 6h-32.56c-3.32 0-6-2.7-6-6z" stroke="#000" stroke-opacity="0" stroke-width="3" fill="#fff"/><use xlink:href="#h" transform="matrix(1,0,0,1,502.7165354330708,480.83333333333337) translate(0.30864197530864246 25.09027777777778)"/><path d="M442.5 500h36.7" stroke="#5e5e5e" stroke-width="2" fill="none"/><path d="M442.53 501h-1.03v-2h1.03z" fill="#5e5e5e"/><path d="M494.48 500l-14.27 4.64v-9.28z" stroke="#5e5e5e" stroke-width="2" fill="#5e5e5e"/><path d="M497.72 133.5c0-3.3 2.68-6 6-6h32.56c3.32 0 6 2.7 6 6v36.33c0 3.32-2.68 6-6 6h-32.56c-3.32 0-6-2.68-6-6z" stroke="#000" stroke-opacity="0" stroke-width="3" fill="#fff"/><use xlink:href="#i" transform="matrix(1,0,0,1,502.7165354330708,132.50000000000003) translate(9.166666666666668 25.09027777777778)"/><path d="M497.72 226c0-3.3 2.68-6 6-6h32.56c3.32 0 6 2.7 6 6v36.33c0 3.32-2.68 6-6 6h-32.56c-3.32 0-6-2.68-6-6z" stroke="#000" stroke-opacity="0" stroke-width="3" fill="#fff"/><use xlink:href="#j" transform="matrix(1,0,0,1,502.7165354330708,225) translate(9.783950617283951 25.09027777777778)"/><path d="M543.28 151.67H580" stroke="#5e5e5e" stroke-width="2" fill="none"/><path d="M543.3 152.67h-1.02v-2h1.03z" fill="#5e5e5e"/><path d="M595.26 151.67L581 156.3v-9.27z" stroke="#5e5e5e" stroke-width="2" fill="#5e5e5e"/><path d="M543.28 244.17H580" stroke="#5e5e5e" stroke-width="2" fill="none"/><path d="M543.3 245.17h-1.02v-2h1.03z" fill="#5e5e5e"/><path d="M595.26 244.17L581 248.8v-9.27z" stroke="#5e5e5e" stroke-width="2" fill="#5e5e5e"/><path d="M200 481.83c0-3.3 2.7-6 6-6h32.57c3.3 0 6 2.7 6 6v36.34c0 3.3-2.7 6-6 6H206c-3.3 0-6-2.7-6-6z" stroke="#000" stroke-opacity="0" stroke-width="3" fill="#fff"/><use xlink:href="#k" transform="matrix(1,0,0,1,205,480.83333333333337) translate(0.9259259259259274 25.09027777777778)"/><path d="M222.28 525.17V635.5c0 3.3 2.7 6 6 6H664c3.3 0 6-2.7 6-6V620" stroke="#5e5e5e" stroke-width="2" fill="none"/><path d="M223.28 525.2h-2v-1.03h2z" fill="#5e5e5e"/><path d="M670 604.74l4.64 14.26h-9.28z" stroke="#5e5e5e" stroke-width="2" fill="#5e5e5e"/><path d="M543.28 500H580" stroke="#5e5e5e" stroke-width="2" fill="none"/><path d="M543.3 501h-1.02v-2h1.03z" fill="#5e5e5e"/><path d="M595.26 500L581 504.64v-9.28z" stroke="#5e5e5e" stroke-width="2" fill="#5e5e5e"/><path d="M245.57 500H280" stroke="#5e5e5e" stroke-width="2" fill="none"/><path d="M245.6 501h-1.03v-2h1.02z" fill="#5e5e5e"/><path d="M295.26 500L281 504.64v-9.28z" stroke="#5e5e5e" stroke-width="2" fill="#5e5e5e"/><defs><path fill="#333" d="M32 76v-337h29V76H32" id="l"/><use transform="matrix(0.06172839506172839,0,0,0.06172839506172839,0,0)" xlink:href="#l" id="a"/><path fill="#333" d="M127-220V0H93v-220H8v-28h204v28h-85" id="m"/><path fill="#333" d="M100-194c63 0 86 42 84 106H49c0 40 14 67 53 68 26 1 43-12 49-29l28 8c-11 28-37 45-77 45C44 4 14-33 15-96c1-61 26-98 85-98zm52 81c6-60-76-77-97-28-3 7-6 17-6 28h103" id="n"/><path fill="#333" d="M210-169c-67 3-38 105-44 169h-31v-121c0-29-5-50-35-48C34-165 62-65 56 0H25l-1-190h30c1 10-1 24 2 32 10-44 99-50 107 0 11-21 27-35 58-36 85-2 47 119 55 194h-31v-121c0-29-5-49-35-48" id="o"/><path fill="#333" d="M115-194c55 1 70 41 70 98S169 2 115 4C84 4 66-9 55-30l1 105H24l-1-265h31l2 30c10-21 28-34 59-34zm-8 174c40 0 45-34 45-75s-6-73-45-74c-42 0-51 32-51 76 0 43 10 73 51 73" id="p"/><path fill="#333" d="M100-194c62-1 85 37 85 99 1 63-27 99-86 99S16-35 15-95c0-66 28-99 85-99zM99-20c44 1 53-31 53-75 0-43-8-75-51-75s-53 32-53 75 10 74 51 75" id="q"/><path fill="#333" d="M114-163C36-179 61-72 57 0H25l-1-190h30c1 12-1 29 2 39 6-27 23-49 58-41v29" id="r"/><path fill="#333" d="M141-36C126-15 110 5 73 4 37 3 15-17 15-53c-1-64 63-63 125-63 3-35-9-54-41-54-24 1-41 7-42 31l-33-3c5-37 33-52 76-52 45 0 72 20 72 64v82c-1 20 7 32 28 27v20c-31 9-61-2-59-35zM48-53c0 20 12 33 32 33 41-3 63-29 60-74-43 2-92-5-92 41" id="s"/><path fill="#333" d="M24 0v-261h32V0H24" id="t"/><g id="b"><use transform="matrix(0.06172839506172839,0,0,0.06172839506172839,0,0)" xlink:href="#m"/><use transform="matrix(0.06172839506172839,0,0,0.06172839506172839,11.049382716049381,0)" xlink:href="#n"/><use transform="matrix(0.06172839506172839,0,0,0.06172839506172839,23.39506172839506,0)" xlink:href="#o"/><use transform="matrix(0.06172839506172839,0,0,0.06172839506172839,41.85185185185185,0)" xlink:href="#p"/><use transform="matrix(0.06172839506172839,0,0,0.06172839506172839,54.197530864197525,0)" xlink:href="#q"/><use transform="matrix(0.06172839506172839,0,0,0.06172839506172839,66.5432098765432,0)" xlink:href="#r"/><use transform="matrix(0.06172839506172839,0,0,0.06172839506172839,73.88888888888889,0)" xlink:href="#s"/><use transform="matrix(0.06172839506172839,0,0,0.06172839506172839,86.23456790123457,0)" xlink:href="#t"/></g><path fill="#333" d="M30-248c118-7 216 8 213 122C240-48 200 0 122 0H30v-248zM63-27c89 8 146-16 146-99s-60-101-146-95v194" id="u"/><path fill="#333" d="M24-231v-30h32v30H24zM24 0v-190h32V0H24" id="v"/><path fill="#333" d="M101-234c-31-9-42 10-38 44h38v23H63V0H32v-167H5v-23h27c-7-52 17-82 69-68v24" id="w"/><path fill="#333" d="M117-194c89-4 53 116 60 194h-32v-121c0-31-8-49-39-48C34-167 62-67 57 0H25l-1-190h30c1 10-1 24 2 32 11-22 29-35 61-36" id="x"/><path fill="#333" d="M96-169c-40 0-48 33-48 73s9 75 48 75c24 0 41-14 43-38l32 2c-6 37-31 61-74 61-59 0-76-41-82-99-10-93 101-131 147-64 4 7 5 14 7 22l-32 3c-4-21-16-35-41-35" id="y"/><g id="c"><use transform="matrix(0.06172839506172839,0,0,0.06172839506172839,0,0)" xlink:href="#u"/><use transform="matrix(0.06172839506172839,0,0,0.06172839506172839,15.987654320987653,0)" xlink:href="#v"/><use transform="matrix(0.06172839506172839,0,0,0.06172839506172839,20.864197530864196,0)" xlink:href="#w"/><use transform="matrix(0.06172839506172839,0,0,0.06172839506172839,26.604938271604937,0)" xlink:href="#w"/><use transform="matrix(0.06172839506172839,0,0,0.06172839506172839,32.77777777777778,0)" xlink:href="#n"/><use transform="matrix(0.06172839506172839,0,0,0.06172839506172839,45.123456790123456,0)" xlink:href="#r"/><use transform="matrix(0.06172839506172839,0,0,0.06172839506172839,52.46913580246913,0)" xlink:href="#n"/><use transform="matrix(0.06172839506172839,0,0,0.06172839506172839,64.81481481481481,0)" xlink:href="#x"/><use transform="matrix(0.06172839506172839,0,0,0.06172839506172839,77.1604938271605,0)" xlink:href="#y"/><use transform="matrix(0.06172839506172839,0,0,0.06172839506172839,88.27160493827161,0)" xlink:href="#n"/></g><path fill="#333" d="M30 0v-248h187v28H63v79h144v27H63v87h162V0H30" id="z"/><g id="d"><use transform="matrix(0.06172839506172839,0,0,0.06172839506172839,0,0)" xlink:href="#z"/><use transform="matrix(0.06172839506172839,0,0,0.06172839506172839,14.814814814814813,0)" xlink:href="#r"/><use transform="matrix(0.06172839506172839,0,0,0.06172839506172839,22.160493827160494,0)" xlink:href="#r"/><use transform="matrix(0.06172839506172839,0,0,0.06172839506172839,29.50617283950617,0)" xlink:href="#q"/><use transform="matrix(0.06172839506172839,0,0,0.06172839506172839,41.85185185185185,0)" xlink:href="#r"/></g><path fill="#333" d="M140-251c81 0 123 46 123 126C263-53 228-8 163 1c7 30 30 48 69 40v23c-55 16-95-15-103-61C56-3 17-48 17-125c0-80 42-126 123-126zm0 227c63 0 89-41 89-101s-29-99-89-99c-61 0-89 39-89 99S79-25 140-24" id="A"/><path fill="#333" d="M47-170H22l-4-78h33" id="B"/><g id="e"><use transform="matrix(0.06172839506172839,0,0,0.06172839506172839,0,0)" xlink:href="#A"/><use transform="matrix(0.06172839506172839,0,0,0.06172839506172839,17.28395061728395,0)" xlink:href="#B"/></g><path fill="#333" d="M179-190L93 31C79 59 56 82 12 73V49c39 6 53-20 64-50L1-190h34L92-34l54-156h33" id="C"/><use transform="matrix(0.06172839506172839,0,0,0.06172839506172839,0,0)" xlink:href="#C" id="f"/><use transform="matrix(0.06172839506172839,0,0,0.06172839506172839,0,0)" xlink:href="#A" id="g"/><path fill="#333" d="M59-47c-2 24 18 29 38 22v24C64 9 27 4 27-40v-127H5v-23h24l9-43h21v43h35v23H59v120" id="D"/><path fill="#333" d="M118-107v75H92v-75H18v-26h74v-75h26v75h74v26h-74" id="E"/><path fill="#333" d="M27 0v-27h64v-190l-56 39v-29l58-41h29v221h61V0H27" id="F"/><g id="h"><use transform="matrix(0.06172839506172839,0,0,0.06172839506172839,0,0)" xlink:href="#s"/><use transform="matrix(0.043209876543209874,0,0,0.043209876543209874,12.345679012345679,3.1111111111111107)" xlink:href="#D"/><use transform="matrix(0.043209876543209874,0,0,0.043209876543209874,16.666666666666664,3.1111111111111107)" xlink:href="#E"/><use transform="matrix(0.043209876543209874,0,0,0.043209876543209874,25.74074074074074,3.1111111111111107)" xlink:href="#F"/></g><g id="i"><use transform="matrix(0.06172839506172839,0,0,0.06172839506172839,0,0)" xlink:href="#s"/><use transform="matrix(0.043209876543209874,0,0,0.043209876543209874,12.345679012345679,3.1111111111111107)" xlink:href="#D"/></g><path fill="#333" d="M135-143c-3-34-86-38-87 0 15 53 115 12 119 90S17 21 10-45l28-5c4 36 97 45 98 0-10-56-113-15-118-90-4-57 82-63 122-42 12 7 21 19 24 35" id="G"/><g id="j"><use transform="matrix(0.06172839506172839,0,0,0.06172839506172839,0,0)" xlink:href="#G"/><use transform="matrix(0.043209876543209874,0,0,0.043209876543209874,11.11111111111111,3.1111111111111107)" xlink:href="#D"/></g><g id="k"><use transform="matrix(0.06172839506172839,0,0,0.06172839506172839,0,0)" xlink:href="#G"/><use transform="matrix(0.043209876543209874,0,0,0.043209876543209874,11.11111111111111,3.1111111111111107)" xlink:href="#D"/><use transform="matrix(0.043209876543209874,0,0,0.043209876543209874,15.4320987654321,3.1111111111111107)" xlink:href="#E"/><use transform="matrix(0.043209876543209874,0,0,0.043209876543209874,24.50617283950617,3.1111111111111107)" xlink:href="#F"/></g></defs></g></svg>